<?xml version="1.0"?>
<svg xmlns="http://www.w3.org/2000/svg" xmlns:xlink="http://www.w3.org/1999/xlink" xmlns:svgjs="http://svgjs.com/svgjs" version="1.1" width="512" height="512" x="0" y="0" viewBox="0 0 370.341 370.341" style="enable-background:new 0 0 512 512" xml:space="preserve" class=""><g>
<path xmlns="http://www.w3.org/2000/svg" style="" d="M300,11.498l34,58.8l0,0l34,58.8c4.8,8,2,18.8-6.4,23.6c-2.8,1.6-5.6,2.4-8.4,2.4l0,0h-18.4v151.2  h-99.2v-151.2h-18.4c-9.6,0-17.2-7.6-17.2-17.2c0-3.6,1.2-6.8,2.8-9.6l33.2-58c0-0.4,0.4-0.8,0.4-0.8l33.6-58  c4.8-8,15.2-11.2,23.2-6.4C296.4,6.698,298.8,9.098,300,11.498z M100.4,11.498l34,58.8l0,0l33.6,58.8c4.8,8,2,18.8-6.4,23.6  c-2.8,1.6-5.6,2.4-8.4,2.4l0,0h-18.4v151.2H36v-151.2H17.2c-9.6,0-17.2-7.6-17.2-17.2c0-3.6,1.2-6.8,2.8-9.6l33.2-58  c0-0.4,0.4-0.8,0.4-0.8l33.6-58c4.8-8,15.2-11.2,23.2-6.4C96.4,6.698,98.8,9.098,100.4,11.498z" fill="#80d992" data-original="#d9ac80" class=""/>
<path xmlns="http://www.w3.org/2000/svg" style="" d="M26,338.698h318.4c8,0,14.4,6.4,14.4,14.4l0,0c0,8-6.4,14.4-14.4,14.4H26c-8,0-14.4-6.4-14.4-14.4  l0,0C11.6,345.098,18,338.698,26,338.698z" fill="#80d992" data-original="#a67e4f" class=""/>
<g xmlns="http://www.w3.org/2000/svg">
</g>
<g xmlns="http://www.w3.org/2000/svg">
</g>
<g xmlns="http://www.w3.org/2000/svg">
</g>
<g xmlns="http://www.w3.org/2000/svg">
</g>
<g xmlns="http://www.w3.org/2000/svg">
</g>
<g xmlns="http://www.w3.org/2000/svg">
</g>
<g xmlns="http://www.w3.org/2000/svg">
</g>
<g xmlns="http://www.w3.org/2000/svg">
</g>
<g xmlns="http://www.w3.org/2000/svg">
</g>
<g xmlns="http://www.w3.org/2000/svg">
</g>
<g xmlns="http://www.w3.org/2000/svg">
</g>
<g xmlns="http://www.w3.org/2000/svg">
</g>
<g xmlns="http://www.w3.org/2000/svg">
</g>
<g xmlns="http://www.w3.org/2000/svg">
</g>
<g xmlns="http://www.w3.org/2000/svg">
</g>
</g></svg>
