<?xml version="1.0"?>
<svg xmlns="http://www.w3.org/2000/svg" xmlns:xlink="http://www.w3.org/1999/xlink" xmlns:svgjs="http://svgjs.com/svgjs" version="1.1" width="512" height="512" x="0" y="0" viewBox="0 0 469.333 469.333" style="enable-background:new 0 0 512 512" xml:space="preserve" class=""><g>
<g xmlns="http://www.w3.org/2000/svg">
	<g>
		<g>
			<path d="M341.333,256H256v-42.667h42.667c23.573,0,42.667-19.093,42.667-42.667V128c0-23.573-19.093-42.667-42.667-42.667     h-85.333V128h85.333v42.667H256c-23.573,0-42.667,19.093-42.667,42.667v85.333h128V256z" fill="#26efaf" data-original="#000000" style="" class=""/>
			<path d="M42.667,85.333H0v341.333c0,23.573,19.093,42.667,42.667,42.667H384v-42.667H42.667V85.333z" fill="#26efaf" data-original="#000000" style="" class=""/>
			<path d="M426.667,0H128c-23.573,0-42.667,19.093-42.667,42.667v298.667C85.333,364.907,104.427,384,128,384h298.667     c23.573,0,42.667-19.093,42.667-42.667V42.667C469.333,19.093,450.24,0,426.667,0z M426.667,341.333H128V42.667h298.667V341.333z     " fill="#26efaf" data-original="#000000" style="" class=""/>
		</g>
	</g>
</g>
<g xmlns="http://www.w3.org/2000/svg">
</g>
<g xmlns="http://www.w3.org/2000/svg">
</g>
<g xmlns="http://www.w3.org/2000/svg">
</g>
<g xmlns="http://www.w3.org/2000/svg">
</g>
<g xmlns="http://www.w3.org/2000/svg">
</g>
<g xmlns="http://www.w3.org/2000/svg">
</g>
<g xmlns="http://www.w3.org/2000/svg">
</g>
<g xmlns="http://www.w3.org/2000/svg">
</g>
<g xmlns="http://www.w3.org/2000/svg">
</g>
<g xmlns="http://www.w3.org/2000/svg">
</g>
<g xmlns="http://www.w3.org/2000/svg">
</g>
<g xmlns="http://www.w3.org/2000/svg">
</g>
<g xmlns="http://www.w3.org/2000/svg">
</g>
<g xmlns="http://www.w3.org/2000/svg">
</g>
<g xmlns="http://www.w3.org/2000/svg">
</g>
<script/></g></svg>
