<?xml version="1.0"?>
<svg xmlns="http://www.w3.org/2000/svg" xmlns:xlink="http://www.w3.org/1999/xlink" xmlns:svgjs="http://svgjs.com/svgjs" version="1.1" width="512" height="512" x="0" y="0" viewBox="0 0 512 512" style="enable-background:new 0 0 512 512" xml:space="preserve" class=""><g><g xmlns="http://www.w3.org/2000/svg"><circle cx="175" cy="175" fill="#d9e6fc" r="175" data-original="#eef4ff" style="" class=""/><path d="m350 175c0 96.17-77.96 174.46-174 175v-350c96.04.54 174 78.83 174 175z" fill="#d9e6fc" data-original="#d9e6fc" style="" class=""/><path d="m238.23 243.26-48-144c-2.04-6.13-7.77-10.26-14.23-10.26s-12.19 4.13-14.23 10.26l-48 144c-2.62 7.86 1.63 16.35 9.49 18.97s16.35-1.63 18.97-9.49l7.25-21.74h53.04l7.25 21.74c2.1 6.29 7.95 10.26 14.23 10.26 10.193 0 17.474-10.007 14.23-19.74zm-78.75-42.26 16.52-49.57 16.52 49.57z" fill="#425796" data-original="#425796" style=""/><path d="m228.74 262.23c-7.898 2.616-16.355-1.656-18.97-9.49l-7.25-21.74h-26.52v-30h16.52l-16.52-49.57v-62.43c6.46 0 12.19 4.13 14.23 10.26l48 144c2.62 7.86-1.63 16.35-9.49 18.97z" fill="#283758" data-original="#283758" style=""/><path d="m512 337c0 95.019-76.636 175-176 175-96.04-.54-174-78.83-174-175s77.96-174.46 174-175c99.29 0 176 79.897 176 175z" fill="#ffb454" data-original="#ffe278" style="" class=""/><path d="m512 337c0 95.019-76.636 175-176 175v-350c99.29 0 176 79.897 176 175z" fill="#ffb454" data-original="#ffb454" style="" class=""/><path d="m312 265h-40c-8.284 0-15 6.716-15 15s6.716 15 15 15h24.229c-2.354 25.746-10.737 66.997-33.599 85.287-6.469 5.175-7.518 14.614-2.343 21.083 5.191 6.488 14.634 7.503 21.083 2.342 45.111-36.087 45.63-120.151 45.63-123.712 0-8.284-6.716-15-15-15z" fill="#d9e6fc" data-original="#eef4ff" style="" class=""/><path d="m400 305h-17v-41c0-8.284-6.716-15-15-15s-15 6.716-15 15v144c0 8.284 6.716 15 15 15s15-6.716 15-15v-73h17c8.284 0 15-6.716 15-15s-6.716-15-15-15z" fill="#d9e6fc" data-original="#d9e6fc" style="" class=""/><path d="m464 143c-8.284 0-15-6.716-15-15 0-35.841-29.159-65-65-65-8.284 0-15-6.716-15-15s6.716-15 15-15c52.383 0 95 42.617 95 95 0 8.284-6.716 15-15 15z" fill="#d8225b" data-original="#d8225b" style=""/><path d="m128 479c-52.383 0-95-42.617-95-95 0-8.284 6.716-15 15-15s15 6.716 15 15c0 35.841 29.159 65 65 65 8.284 0 15 6.716 15 15s-6.716 15-15 15z" fill="#dd5958" data-original="#dd5958" style="" class=""/></g><script/></g></svg>
