<?xml version="1.0"?>
<svg xmlns="http://www.w3.org/2000/svg" xmlns:xlink="http://www.w3.org/1999/xlink" xmlns:svgjs="http://svgjs.com/svgjs" version="1.1" width="512" height="512" x="0" y="0" viewBox="0 0 512 512" style="enable-background:new 0 0 512 512" xml:space="preserve" class=""><g>
<g xmlns="http://www.w3.org/2000/svg">
	<g>
		<polygon points="311.652,205.913 311.652,172.522 200.348,172.522 200.348,339.478 311.652,339.478 311.652,306.087     233.739,306.087 233.739,272.696 311.652,272.696 311.652,239.304 233.739,239.304 233.739,205.913   " fill="#602dd3" data-original="#000000" style=""/>
	</g>
</g>
<g xmlns="http://www.w3.org/2000/svg">
	<g>
		<polygon points="133.565,172.522 133.565,272.696 100.174,272.696 100.174,306.087 133.565,306.087 133.565,339.478     166.957,339.478 166.957,172.522   " fill="#602dd3" data-original="#000000" style=""/>
	</g>
</g>
<g xmlns="http://www.w3.org/2000/svg">
	<g>
		<polygon points="33.391,205.913 33.391,172.522 0,172.522 0,339.478 33.391,339.478 33.391,239.304 66.783,239.304     66.783,205.913   " fill="#602dd3" data-original="#000000" style=""/>
	</g>
</g>
<g xmlns="http://www.w3.org/2000/svg">
	<g>
		<rect x="66.783" y="239.304" width="33.391" height="33.391" fill="#602dd3" data-original="#000000" style=""/>
	</g>
</g>
<g xmlns="http://www.w3.org/2000/svg">
	<g>
		<polygon points="478.609,172.522 478.609,306.087 445.217,306.087 445.217,217.043 411.826,217.043 411.826,306.087     378.435,306.087 378.435,172.522 345.043,172.522 345.043,339.478 512,339.478 512,172.522   " fill="#602dd3" data-original="#000000" style=""/>
	</g>
</g>
<g xmlns="http://www.w3.org/2000/svg">
</g>
<g xmlns="http://www.w3.org/2000/svg">
</g>
<g xmlns="http://www.w3.org/2000/svg">
</g>
<g xmlns="http://www.w3.org/2000/svg">
</g>
<g xmlns="http://www.w3.org/2000/svg">
</g>
<g xmlns="http://www.w3.org/2000/svg">
</g>
<g xmlns="http://www.w3.org/2000/svg">
</g>
<g xmlns="http://www.w3.org/2000/svg">
</g>
<g xmlns="http://www.w3.org/2000/svg">
</g>
<g xmlns="http://www.w3.org/2000/svg">
</g>
<g xmlns="http://www.w3.org/2000/svg">
</g>
<g xmlns="http://www.w3.org/2000/svg">
</g>
<g xmlns="http://www.w3.org/2000/svg">
</g>
<g xmlns="http://www.w3.org/2000/svg">
</g>
<g xmlns="http://www.w3.org/2000/svg">
</g>
<script/></g></svg>
