<svg id="Flat" height="512" viewBox="0 0 512 512" width="512" xmlns="http://www.w3.org/2000/svg"><g><g fill="#e64b30"><rect height="80" rx="16" width="32" x="240" y="24"/><rect height="72" rx="16" transform="matrix(0 -1 1 0 -196 316)" width="32" x="44" y="220"/><rect height="72" rx="16" transform="matrix(0 -1 1 0 196 708)" width="32" x="436" y="220"/><rect height="88" rx="16" transform="matrix(.707 -.707 .707 .707 -34.711 83.799)" width="32" x="67.799" y="39.799"/><rect height="32" rx="16" transform="matrix(.707 -.707 .707 .707 66.162 327.328)" width="88" x="384.201" y="67.799"/></g><g><path d="m400 432v8h-288v-8l29.173-269.141a30 30 0 0 1 29.835-26.859h169.984a30 30 0 0 1 29.835 26.859z" fill="#e64b30"/><path d="m249.59 306.465-82.006 31.541a10 10 0 0 1 -13.513-10.573l11.969-95.753a10 10 0 0 1 15.292-7.2l70.037 44.569a10 10 0 0 1 4.631 8.44v19.643a10 10 0 0 1 -6.41 9.333z" fill="#fdbf44"/><path d="m262.41 306.465 82.006 31.541a10 10 0 0 0 13.513-10.573l-11.969-95.753a10 10 0 0 0 -15.292-7.2l-70.037 44.569a10 10 0 0 0 -4.631 8.44v19.643a10 10 0 0 0 6.41 9.333z" fill="#fdbf44"/><path d="m288 288a32 32 0 1 0 -48 27.719v124.281h32v-124.281a31.988 31.988 0 0 0 16-27.719z" fill="#b33a25"/><path d="m144 392h16v16h-16z" fill="#fef8f7"/><path d="m352 392h16v16h-16z" fill="#fef8f7"/><path d="m108 432h296a20 20 0 0 1 20 20v36a0 0 0 0 1 0 0h-336a0 0 0 0 1 0 0v-36a20 20 0 0 1 20-20z" fill="#fdbf44"/></g></g></svg>