<?xml version="1.0" encoding="iso-8859-1"?>
<!-- Generator: Adobe Illustrator 19.0.0, SVG Export Plug-In . SVG Version: 6.00 Build 0)  -->
<svg version="1.1" id="Layer_1" xmlns="http://www.w3.org/2000/svg" xmlns:xlink="http://www.w3.org/1999/xlink" x="0px" y="0px"
	 viewBox="0 0 512 512" style="enable-background:new 0 0 512 512;" xml:space="preserve">
<path style="fill:#003359;" d="M480.653,463.935H31.347c-11.542,0-20.898,9.356-20.898,20.898v16.718h491.102v-16.718
	C501.551,473.291,492.195,463.935,480.653,463.935z"/>
<path style="fill:#0058A0;" d="M448.261,393.937H63.739c-11.542,0-20.898,9.356-20.898,20.898v49.1h426.318v-49.1
	C469.159,403.293,459.803,393.937,448.261,393.937z"/>
<path style="fill:#EE151F;" d="M331.681,101.355H180.319c-23.397,0-43.466,16.572-47.73,39.415L77.322,393.937h357.355
	l-55.267-253.166C375.147,117.927,355.078,101.355,331.681,101.355z"/>
<circle style="fill:#DEDDE1;" cx="256" cy="256.136" r="98.22"/>
<circle style="fill:#EE151F;" cx="256" cy="256.136" r="48.065"/>
<rect x="225.698" y="350.72" style="fill:#003359;" width="60.604" height="43.207"/>
<path d="M256,314.647c-32.264,0-58.514-26.25-58.514-58.514s26.25-58.514,58.514-58.514s58.514,26.25,58.514,58.514
	S288.264,314.647,256,314.647z M256,218.516c-20.742,0-37.616,16.874-37.616,37.616s16.874,37.616,37.616,37.616
	c20.742,0,37.616-16.874,37.616-37.616S276.742,218.516,256,218.516z"/>
<path d="M208.218,439.384h-0.144c-5.771,0-10.449-4.678-10.449-10.449c0-5.771,4.678-10.449,10.449-10.449h0.144
	c5.771,0,10.449,4.678,10.449,10.449C218.667,434.706,213.988,439.384,208.218,439.384z"/>
<path d="M480.653,453.486h-1.045v-38.651c0-17.285-14.062-31.347-31.347-31.347h-5.169l-53.44-244.799
	c-5.252-27.698-29.604-47.783-57.971-47.783H180.319c-28.366,0-52.719,20.085-57.97,47.783L68.908,383.488h-5.169
	c-17.285,0-31.347,14.062-31.347,31.347v38.651h-1.045C14.062,453.486,0,467.548,0,484.833v16.718C0,507.322,4.678,512,10.449,512
	h491.102c5.771,0,10.449-4.678,10.449-10.449v-16.718C512,467.548,497.938,453.486,480.653,453.486z M142.798,142.998
	c0.022-0.103,0.044-0.207,0.063-0.311c3.341-17.895,19.094-30.883,37.459-30.883h151.362c18.364,0,34.117,12.988,37.459,30.884
	c0.02,0.105,0.041,0.208,0.063,0.311l52.5,240.488H296.751v-26.622c39.787-16.154,67.918-55.217,67.918-100.733
	c0-59.921-48.749-108.669-108.669-108.669s-108.669,48.749-108.669,108.669c0,45.516,28.132,84.579,67.918,100.733v26.622H90.298
	L142.798,142.998z M256,343.904c-48.398,0-87.771-39.374-87.771-87.771s39.374-87.771,87.771-87.771s87.771,39.374,87.771,87.771
	S304.398,343.904,256,343.904z M236.147,362.979c6.439,1.193,13.074,1.823,19.853,1.823c6.779,0,13.414-0.63,19.853-1.823v20.509
	h-39.706V362.979z M53.29,439.385h123.578c5.771,0,10.449-4.678,10.449-10.449c0-5.771-4.678-10.449-10.449-10.449H53.29v-3.653
	c0-5.762,4.687-10.449,10.449-10.449h384.522c5.762,0,10.449,4.687,10.449,10.449v38.652H53.29V439.385z M491.102,491.102H20.898
	v-6.269c0-5.762,4.687-10.449,10.449-10.449h437.812h11.494c5.762,0,10.449,4.687,10.449,10.449V491.102z"/>
<path d="M256,65.829c-5.771,0-10.449-4.678-10.449-10.449V10.449C245.551,4.678,250.229,0,256,0c5.771,0,10.449,4.678,10.449,10.449
	V55.38C266.449,61.151,261.771,65.829,256,65.829z"/>
<path d="M318.11,75.693c-2.674,0-5.348-1.02-7.388-3.061c-4.08-4.08-4.081-10.697,0-14.777l31.031-31.032
	c4.08-4.08,10.697-4.081,14.777,0s4.081,10.697,0,14.777l-31.031,31.032C323.459,74.673,320.784,75.693,318.11,75.693z"/>
<path d="M194.008,75.81c-2.674,0-5.349-1.02-7.388-3.061l-29.834-29.834c-4.08-4.08-4.08-10.697,0-14.778
	c4.08-4.08,10.697-4.08,14.778,0l29.834,29.834c4.08,4.08,4.08,10.697,0,14.778C199.357,74.791,196.682,75.81,194.008,75.81z"/>
<g>
</g>
<g>
</g>
<g>
</g>
<g>
</g>
<g>
</g>
<g>
</g>
<g>
</g>
<g>
</g>
<g>
</g>
<g>
</g>
<g>
</g>
<g>
</g>
<g>
</g>
<g>
</g>
<g>
</g>
</svg>
